<?xml version="1.0" encoding="utf-8"?>
<!-- Generator: Adobe Illustrator 16.0.0, SVG Export Plug-In . SVG Version: 6.00 Build 0)  -->
<!DOCTYPE svg PUBLIC "-//W3C//DTD SVG 1.1//EN" "http://www.w3.org/Graphics/SVG/1.1/DTD/svg11.dtd">
<svg version="1.1" id="Layer_1" xmlns="http://www.w3.org/2000/svg" xmlns:xlink="http://www.w3.org/1999/xlink" x="0px" y="0px"
	 width="100px" height="100px" viewBox="0 0 100 100" enable-background="new 0 0 100 100" xml:space="preserve">
<g>
	<rect x="51.273" y="30.277" fill="#87C840" width="8.333" height="8.333"/>
	<rect x="51.273" y="48.61" fill="#87C840" width="8.333" height="8.333"/>
	<rect x="57.773" y="70.277" fill="#87C840" width="8.333" height="14.166"/>
	<g>
		<path fill="#2D6868" d="M81.413,85.742H42.512c-0.795,0-1.438-0.645-1.438-1.439V22.376c0-0.795,0.643-1.438,1.438-1.438h38.901
			c0.795,0,1.438,0.644,1.438,1.438v61.926C82.852,85.098,82.208,85.742,81.413,85.742z M43.95,82.865h36.024v-59.05H43.95V82.865z"
			/>
	</g>
	<g>
		<path fill="#2D6868" d="M60.201,40.657h-9.25c-0.795,0-1.438-0.643-1.438-1.438v-9.251c0-0.795,0.644-1.438,1.438-1.438h9.25
			c0.795,0,1.438,0.644,1.438,1.438v9.251C61.64,40.014,60.996,40.657,60.201,40.657z M52.39,37.781h6.373v-6.375H52.39V37.781z"/>
	</g>
	<g>
		<path fill="#2D6868" d="M60.201,58.803h-9.25c-0.795,0-1.438-0.643-1.438-1.438v-9.252c0-0.795,0.644-1.438,1.438-1.438h9.25
			c0.795,0,1.438,0.643,1.438,1.438v9.252C61.64,58.16,60.996,58.803,60.201,58.803z M52.39,55.926h6.373v-6.375H52.39V55.926z"/>
	</g>
	<g>
		<path fill="#2D6868" d="M76.366,23.815H47.558c-0.795,0-1.438-0.644-1.438-1.438v-6.681c0-0.795,0.644-1.438,1.438-1.438h28.809
			c0.795,0,1.438,0.644,1.438,1.438v6.681C77.805,23.171,77.161,23.815,76.366,23.815z M48.996,20.938h25.932v-3.804H48.996V20.938z
			"/>
	</g>
	<path fill="#2D6868" d="M25.225,33.976c-3.425,0-6.21-2.785-6.21-6.208c0-1.926,1.79-13.511,6.21-13.511s6.21,11.585,6.21,13.511
		C31.435,31.191,28.649,33.976,25.225,33.976z M25.225,17.166c-1.313,0.802-3.334,7.648-3.334,10.603
		c0,1.837,1.496,3.332,3.334,3.332s3.334-1.495,3.334-3.332C28.559,24.814,26.537,17.966,25.225,17.166z"/>
	<path fill="#87C840" d="M25.225,17.166c-1.313,0.802-3.334,7.648-3.334,10.603c0,1.837,1.496,3.332,3.334,3.332
		s3.334-1.495,3.334-3.332C28.559,24.814,26.537,17.966,25.225,17.166z"/>
	<g>
		<path fill="#2D6868" d="M25.225,40.188c-0.795,0-1.438-0.644-1.438-1.438v-6.256c0-0.796,0.644-1.438,1.438-1.438
			s1.438,0.643,1.438,1.438v6.256C26.663,39.544,26.02,40.188,25.225,40.188z"/>
	</g>
	<g>
		<g>
			<path fill="#2D6868" d="M65.85,85.742H58.07c-0.795,0-1.438-0.645-1.438-1.439V70.658c0-0.795,0.644-1.438,1.438-1.438h7.779
				c0.795,0,1.438,0.643,1.438,1.438v13.645C67.287,85.098,66.645,85.742,65.85,85.742z M59.509,82.865h4.902V72.098h-4.902V82.865z
				"/>
		</g>
		<g>
			<path fill="#2D6868" d="M69.451,72.098H54.472c-0.796,0-1.438-0.645-1.438-1.439s0.643-1.438,1.438-1.438h14.979
				c0.795,0,1.438,0.643,1.438,1.438S70.246,72.098,69.451,72.098z"/>
		</g>
	</g>
	<g>
		<g>
			<path fill="#2D6868" d="M42.512,85.742H18.586c-0.795,0-1.438-0.645-1.438-1.439V39.218c0-0.795,0.643-1.438,1.438-1.438h23.926
				c0.795,0,1.438,0.643,1.438,1.438v45.084C43.95,85.098,43.307,85.742,42.512,85.742z M20.024,82.865h21.05V40.657h-21.05V82.865z
				"/>
		</g>
		<g>
			<path fill="#2D6868" d="M35.16,48.428h-9.221c-0.795,0-1.438-0.644-1.438-1.438s0.643-1.438,1.438-1.438h9.221
				c0.795,0,1.438,0.644,1.438,1.438S35.955,48.428,35.16,48.428z"/>
		</g>
		<g>
			<path fill="#2D6868" d="M35.16,59.873h-9.221c-0.795,0-1.438-0.643-1.438-1.438s0.643-1.439,1.438-1.439h9.221
				c0.795,0,1.438,0.645,1.438,1.439S35.955,59.873,35.16,59.873z"/>
		</g>
		<g>
			<path fill="#2D6868" d="M35.16,71.316h-9.221c-0.795,0-1.438-0.645-1.438-1.439s0.643-1.438,1.438-1.438h9.221
				c0.795,0,1.438,0.643,1.438,1.438S35.955,71.316,35.16,71.316z"/>
		</g>
	</g>
</g>
</svg>
