<?xml version="1.0" encoding="utf-8"?>
<!-- Generator: Adobe Illustrator 16.0.0, SVG Export Plug-In . SVG Version: 6.00 Build 0)  -->
<!DOCTYPE svg PUBLIC "-//W3C//DTD SVG 1.1//EN" "http://www.w3.org/Graphics/SVG/1.1/DTD/svg11.dtd">
<svg version="1.1" id="Layer_1" xmlns="http://www.w3.org/2000/svg" xmlns:xlink="http://www.w3.org/1999/xlink" x="0px" y="0px"
	 width="100px" height="100px" viewBox="0 0 100 100" enable-background="new 0 0 100 100" xml:space="preserve">
<g>
	<path fill="#87C840" d="M12.795,25.743v32.438h25.483V25.743H12.795z M30.822,46.576h-10.55v-9.833h10.55V46.576z"/>
	<path fill="#87C840" d="M63.787,25.743v32.438h25.483V25.743H63.787z M81.729,46.91H71.181v-9.667h10.549V46.91z"/>
	<polygon fill="#87C840" points="38.271,57.409 38.271,89.847 46.989,89.847 46.989,74.576 54.628,74.576 54.628,84.273 
		63.754,84.273 63.754,57.409 	"/>
	<path fill="#87C840" d="M45.734,56.687h-7.464c0-1.872,1.671-3.39,3.732-3.39C44.063,53.297,45.734,54.814,45.734,56.687z"/>
	<path fill="#87C840" d="M64.067,56.687h-7.464c0-1.872,1.671-3.39,3.732-3.39C62.396,53.297,64.067,54.814,64.067,56.687z"/>
	<rect x="12.795" y="84.273" fill="#87C840" width="8.833" height="5.573"/>
	<g>
		<path fill="#2D6868" d="M63.739,91.543H38.278c-0.796,0-1.438-0.644-1.438-1.438v-63.91c0-0.795,0.643-1.438,1.438-1.438h25.461
			c0.795,0,1.438,0.644,1.438,1.438v63.91C65.178,90.899,64.534,91.543,63.739,91.543z M39.717,88.666h22.585V27.633H39.717V88.666z
			"/>
	</g>
	<g>
		<path fill="#2D6868" d="M63.759,27.633c-0.007,0.001-0.017,0.001-0.027,0H38.286c-0.565,0-1.08-0.333-1.312-0.849
			c-0.231-0.517-0.14-1.122,0.236-1.545l12.722-14.32c0.549-0.615,1.604-0.615,2.152,0l12.568,14.149
			c0.332,0.264,0.545,0.67,0.545,1.126C65.198,26.989,64.554,27.633,63.759,27.633z M41.487,24.756H60.53L51.009,14.04
			L41.487,24.756z"/>
	</g>
	<g>
		<path fill="#2D6868" d="M63.739,59.102H38.278c-0.796,0-1.438-0.643-1.438-1.438c0-0.795,0.643-1.438,1.438-1.438h25.461
			c0.795,0,1.438,0.643,1.438,1.438C65.178,58.459,64.534,59.102,63.739,59.102z"/>
	</g>
	<g>
		<path fill="#2D6868" d="M63.739,65.335H38.278c-0.796,0-1.438-0.644-1.438-1.438c0-0.796,0.643-1.438,1.438-1.438h25.461
			c0.795,0,1.438,0.643,1.438,1.438C65.178,64.691,64.534,65.335,63.739,65.335z"/>
	</g>
	<g>
		<path fill="#2D6868" d="M56.403,48.223H45.614c-0.795,0-1.438-0.644-1.438-1.438v-9.498c0-0.795,0.643-1.438,1.438-1.438h10.789
			c0.795,0,1.438,0.644,1.438,1.438v9.498C57.841,47.579,57.198,48.223,56.403,48.223z M47.054,45.346h7.91v-6.621h-7.91V45.346z"/>
	</g>
	<g>
		<path fill="#2D6868" d="M54.845,91.543h-7.672c-0.795,0-1.438-0.644-1.438-1.438v-15.22c0-0.795,0.644-1.438,1.438-1.438h7.672
			c0.795,0,1.438,0.644,1.438,1.438v15.22C56.283,90.899,55.64,91.543,54.845,91.543z M48.611,88.666h4.796V76.323h-4.796V88.666z"
			/>
	</g>
	<g>
		<path fill="#2D6868" d="M63.739,85.712h-8.877c-0.795,0-1.439-0.643-1.439-1.438c0-0.795,0.645-1.438,1.439-1.438h8.877
			c0.795,0,1.438,0.644,1.438,1.438C65.178,85.069,64.534,85.712,63.739,85.712z"/>
	</g>
	<g>
		<path fill="#2D6868" d="M63.724,85.705c-0.795,0-1.438-0.644-1.438-1.438c0-1.644-1.339-2.98-2.981-2.98
			c-1.644,0-2.979,1.337-2.979,2.98c0,0.795-0.644,1.438-1.438,1.438c-0.795,0-1.44-0.644-1.44-1.438
			c0-3.229,2.628-5.857,5.857-5.857s5.858,2.628,5.858,5.857C65.163,85.062,64.519,85.705,63.724,85.705z"/>
	</g>
	<g>
		<path fill="#2D6868" d="M63.739,58.181c-0.795,0-1.438-0.644-1.438-1.438c0-1.099-0.895-1.992-1.991-1.992
			c-1.098,0-1.989,0.894-1.989,1.992c0,0.795-0.643,1.438-1.438,1.438s-1.439-0.644-1.439-1.438c0-2.685,2.184-4.869,4.866-4.869
			c2.685,0,4.867,2.185,4.867,4.869C65.178,57.537,64.534,58.181,63.739,58.181z"/>
	</g>
	<g>
		<path fill="#2D6868" d="M45.134,58.181c-0.795,0-1.438-0.644-1.438-1.438c0-1.099-0.893-1.992-1.989-1.992
			c-1.098,0-1.989,0.894-1.989,1.992c0,0.795-0.644,1.438-1.438,1.438c-0.796,0-1.438-0.644-1.438-1.438
			c0-2.685,2.183-4.869,4.866-4.869s4.867,2.185,4.867,4.869C46.573,57.537,45.93,58.181,45.134,58.181z"/>
	</g>
	<g>
		<path fill="#2D6868" d="M38.278,91.543H12.817c-0.795,0-1.438-0.644-1.438-1.438v-63.91c0-0.795,0.644-1.438,1.438-1.438h25.461
			c0.795,0,1.438,0.644,1.438,1.438v63.91C39.717,90.899,39.073,91.543,38.278,91.543z M14.255,88.666H36.84V27.633H14.255V88.666z"
			/>
	</g>
	<g>
		<path fill="#2D6868" d="M38.297,27.633c-0.006,0.001-0.016,0.001-0.026,0H12.825c-0.566,0-1.08-0.333-1.312-0.849
			c-0.231-0.517-0.14-1.122,0.234-1.545l12.724-14.32c0.548-0.615,1.604-0.615,2.152,0l12.568,14.149
			c0.332,0.264,0.544,0.67,0.544,1.126C39.736,26.989,39.093,27.633,38.297,27.633z M16.026,24.756h19.042L25.548,14.04
			L16.026,24.756z"/>
	</g>
	<g>
		<path fill="#2D6868" d="M38.278,59.102H12.817c-0.795,0-1.438-0.643-1.438-1.438c0-0.795,0.644-1.438,1.438-1.438h25.461
			c0.795,0,1.438,0.643,1.438,1.438C39.717,58.459,39.073,59.102,38.278,59.102z"/>
	</g>
	<g>
		<path fill="#2D6868" d="M38.278,65.335H12.817c-0.795,0-1.438-0.644-1.438-1.438c0-0.796,0.644-1.438,1.438-1.438h25.461
			c0.795,0,1.438,0.643,1.438,1.438C39.717,64.691,39.073,65.335,38.278,65.335z"/>
	</g>
	<g>
		<path fill="#2D6868" d="M30.941,48.223H20.153c-0.795,0-1.438-0.644-1.438-1.438v-9.498c0-0.795,0.643-1.438,1.438-1.438h10.788
			c0.796,0,1.438,0.644,1.438,1.438v9.498C32.38,47.579,31.737,48.223,30.941,48.223z M21.593,45.346h7.91v-6.621h-7.91V45.346z"/>
	</g>
	<g>
		<path fill="#2D6868" d="M29.384,91.543h-7.672c-0.796,0-1.439-0.644-1.439-1.438v-15.22c0-0.795,0.644-1.438,1.439-1.438h7.672
			c0.795,0,1.438,0.644,1.438,1.438v15.22C30.822,90.899,30.179,91.543,29.384,91.543z M23.149,88.666h4.796V76.323h-4.796V88.666z"
			/>
	</g>
	<g>
		<path fill="#2D6868" d="M25.548,48.223c-0.795,0-1.438-0.644-1.438-1.438v-9.498c0-0.795,0.644-1.438,1.438-1.438
			s1.438,0.644,1.438,1.438v9.498C26.985,47.579,26.343,48.223,25.548,48.223z"/>
	</g>
	<g>
		<path fill="#2D6868" d="M21.712,85.712h-8.895c-0.795,0-1.438-0.643-1.438-1.438c0-0.795,0.644-1.438,1.438-1.438h8.895
			c0.795,0,1.438,0.644,1.438,1.438C23.149,85.069,22.507,85.712,21.712,85.712z"/>
	</g>
	<g>
		<path fill="#2D6868" d="M89.185,91.543H63.724c-0.795,0-1.438-0.644-1.438-1.438v-63.91c0-0.795,0.643-1.438,1.438-1.438h25.461
			c0.796,0,1.439,0.644,1.439,1.438v63.91C90.624,90.899,89.98,91.543,89.185,91.543z M65.163,88.666h22.584V27.633H65.163V88.666z"
			/>
	</g>
	<g>
		<path fill="#2D6868" d="M89.205,27.633c-0.007,0.001-0.019,0.001-0.028,0H63.732c-0.566,0-1.08-0.333-1.312-0.849
			c-0.232-0.517-0.14-1.122,0.235-1.545l12.722-14.32c0.549-0.615,1.604-0.615,2.152,0L90.1,25.068
			c0.33,0.264,0.544,0.67,0.544,1.126C90.644,26.989,90,27.633,89.205,27.633z M66.934,24.756h19.042L76.454,14.04L66.934,24.756z"
			/>
	</g>
	<g>
		<path fill="#2D6868" d="M89.185,59.102H63.724c-0.795,0-1.438-0.643-1.438-1.438c0-0.795,0.643-1.438,1.438-1.438h25.461
			c0.796,0,1.439,0.643,1.439,1.438C90.624,58.459,89.98,59.102,89.185,59.102z"/>
	</g>
	<g>
		<path fill="#2D6868" d="M89.185,65.335H63.724c-0.795,0-1.438-0.644-1.438-1.438c0-0.796,0.643-1.438,1.438-1.438h25.461
			c0.796,0,1.439,0.643,1.439,1.438C90.624,64.691,89.98,65.335,89.185,65.335z"/>
	</g>
	<g>
		<path fill="#2D6868" d="M81.849,48.223H71.061c-0.795,0-1.438-0.644-1.438-1.438v-9.498c0-0.795,0.644-1.438,1.438-1.438h10.788
			c0.795,0,1.438,0.644,1.438,1.438v9.498C83.287,47.579,82.644,48.223,81.849,48.223z M72.499,45.346h7.911v-6.621h-7.911V45.346z"
			/>
	</g>
	<g>
		<path fill="#2D6868" d="M80.291,91.543h-7.673c-0.795,0-1.438-0.644-1.438-1.438v-15.22c0-0.795,0.643-1.438,1.438-1.438h7.673
			c0.795,0,1.438,0.644,1.438,1.438v15.22C81.729,90.899,81.086,91.543,80.291,91.543z M74.057,88.666h4.796V76.323h-4.796V88.666z"
			/>
	</g>
	<g>
		<path fill="#2D6868" d="M84.737,91.543c-0.795,0-1.438-0.644-1.438-1.438v-7.029c0-0.795,0.643-1.438,1.438-1.438
			c0.796,0,1.439,0.643,1.439,1.438v7.029C86.177,90.899,85.533,91.543,84.737,91.543z"/>
	</g>
	<g>
		<path fill="#2D6868" d="M17.265,85.712c-0.795,0-1.439-0.643-1.439-1.438v-3.596c0-0.795,0.645-1.438,1.439-1.438
			s1.438,0.644,1.438,1.438v3.596C18.702,85.069,18.06,85.712,17.265,85.712z"/>
	</g>
</g>
</svg>
