<?xml version="1.0" encoding="utf-8"?>
<!-- Generator: Adobe Illustrator 16.0.0, SVG Export Plug-In . SVG Version: 6.00 Build 0)  -->
<!DOCTYPE svg PUBLIC "-//W3C//DTD SVG 1.1//EN" "http://www.w3.org/Graphics/SVG/1.1/DTD/svg11.dtd">
<svg version="1.1" id="Layer_1" xmlns="http://www.w3.org/2000/svg" xmlns:xlink="http://www.w3.org/1999/xlink" x="0px" y="0px"
	 width="100px" height="100px" viewBox="0 0 100 100" enable-background="new 0 0 100 100" xml:space="preserve">
<g>
	<g>
		<path fill="#2D6868" d="M50.359,28.334c-0.795,0-1.438-0.644-1.438-1.438V15.438c0-0.795,0.643-1.438,1.438-1.438
			s1.438,0.644,1.438,1.438v11.457C51.798,27.69,51.154,28.334,50.359,28.334z"/>
	</g>
	<g>
		<path fill="#2D6868" d="M56.776,34.08c-0.343,0-0.686-0.12-0.96-0.366L49.4,27.967c-0.592-0.529-0.643-1.439-0.112-2.031
			c0.53-0.593,1.442-0.64,2.03-0.112l6.418,5.747c0.591,0.529,0.641,1.439,0.111,2.031C57.564,33.919,57.171,34.08,56.776,34.08z"/>
	</g>
	<g>
		<path fill="#2D6868" d="M53.803,10.449c-0.794,0-1.438-0.644-1.438-1.438V6.571h-4.01v2.439c0,0.795-0.644,1.438-1.438,1.438
			c-0.796,0-1.438-0.644-1.438-1.438V5.133c0-0.795,0.643-1.438,1.438-1.438h6.886c0.797,0,1.439,0.644,1.439,1.438v3.878
			C55.242,9.806,54.6,10.449,53.803,10.449z"/>
	</g>
	<g>
		<g>
			<path fill="#2D6868" d="M55.318,90.131c-0.795,0-1.438-0.644-1.438-1.438V70.688h-7.039v18.005c0,0.795-0.644,1.438-1.438,1.438
				s-1.438-0.644-1.438-1.438V69.249c0-0.795,0.643-1.438,1.438-1.438h9.916c0.795,0,1.438,0.644,1.438,1.438v19.443
				C56.756,89.487,56.113,90.131,55.318,90.131z"/>
		</g>
		<g>
			<path fill="#2D6868" d="M58.9,96.306H41.822c-0.795,0-1.438-0.643-1.438-1.438v-5.913c0-0.795,0.644-1.438,1.438-1.438
				s1.438,0.644,1.438,1.438v4.475h14.202v-4.475c0-0.795,0.644-1.438,1.438-1.438s1.438,0.644,1.438,1.438v5.913
				C60.338,95.663,59.695,96.306,58.9,96.306z"/>
		</g>
		<g>
			<path fill="#2D6868" d="M62.508,90.394c-0.008,0.002-0.02,0-0.029,0H37.52c-0.443,0-0.862-0.205-1.135-0.555
				c-0.273-0.352-0.368-0.808-0.259-1.237c0.11-0.436,0.161-0.795,0.161-1.134c0-1.959-1.261-3.704-3.138-4.339
				c-0.423-0.144-0.755-0.475-0.9-0.896c-0.64-1.869-2.382-3.125-4.336-3.125c-0.124,0.013-0.208,0.02-0.292,0.022
				c-0.381-0.01-0.764-0.138-1.041-0.409c-0.277-0.27-0.434-0.642-0.434-1.029V63.949h-5.058c-0.587,0-1.116-0.356-1.335-0.901
				s-0.085-1.168,0.34-1.575l29.27-28.098c0.559-0.535,1.438-0.532,1.992,0l29.111,27.947c0.379,0.259,0.627,0.694,0.627,1.188
				c0,0.795-0.643,1.438-1.438,1.438c-0.008,0.002-0.02,0.002-0.029,0h-5.053v13.774c0,0.41-0.176,0.801-0.482,1.074
				c-0.305,0.272-0.713,0.406-1.123,0.354c-0.197-0.022-0.361-0.045-0.533-0.045c-1.913,0-3.645,1.219-4.31,3.034
				c-0.161,0.44-0.528,0.775-0.981,0.896c-2.021,0.535-3.432,2.356-3.432,4.43c0,0.271,0.033,0.56,0.104,0.89
				c0.083,0.183,0.129,0.385,0.129,0.598C63.945,89.751,63.303,90.394,62.508,90.394z M39.164,87.517h21.672
				c0-0.017,0-0.032,0-0.049c0-3.131,1.971-5.909,4.873-6.989c1.129-2.346,3.412-3.95,5.988-4.212V62.511
				c0-0.795,0.643-1.438,1.438-1.438h2.918L50.359,36.406L24.664,61.072h2.92c0.795,0,1.438,0.644,1.438,1.438v13.803
				c2.495,0.378,4.649,2.01,5.694,4.342c2.686,1.192,4.447,3.851,4.447,6.813C39.164,87.484,39.164,87.5,39.164,87.517z"/>
		</g>
		<g>
			<g>
				<path fill="#2D6868" d="M76.205,94.955c-1.392,0-2.757-0.403-3.943-1.15c-1.186,0.747-2.551,1.15-3.941,1.15
					c-4.127,0-7.484-3.358-7.484-7.487c0-3.131,1.971-5.909,4.873-6.989c1.237-2.568,3.855-4.248,6.727-4.248
					c2.955,0,5.609,1.752,6.805,4.426c2.686,1.191,4.447,3.85,4.447,6.812C83.688,91.597,80.331,94.955,76.205,94.955z
					 M72.262,90.579c0.337,0,0.672,0.118,0.943,0.353c0.602,0.522,1.609,1.146,3,1.146c2.539,0,4.605-2.067,4.605-4.61
					c0-1.959-1.262-3.704-3.139-4.339c-0.424-0.144-0.756-0.475-0.9-0.897c-0.637-1.868-2.379-3.124-4.336-3.124
					c-1.913,0-3.645,1.219-4.31,3.034c-0.161,0.44-0.528,0.775-0.981,0.896c-2.021,0.535-3.432,2.356-3.432,4.43
					c0,2.543,2.066,4.61,4.607,4.61c1.389,0,2.396-0.622,2.997-1.146C71.588,90.697,71.924,90.579,72.262,90.579z"/>
			</g>
			<g>
				<path fill="#2D6868" d="M31.684,94.955c-1.393,0-2.76-0.403-3.945-1.15c-1.187,0.747-2.551,1.15-3.941,1.15
					c-4.127,0-7.484-3.358-7.484-7.487c0-3.133,1.971-5.911,4.873-6.989c1.238-2.568,3.855-4.248,6.728-4.248
					c2.952,0,5.606,1.752,6.804,4.425c2.686,1.192,4.447,3.851,4.447,6.813C39.164,91.597,35.809,94.955,31.684,94.955z
					 M27.738,90.579c0.338,0,0.674,0.118,0.944,0.353c0.601,0.524,1.608,1.146,3.001,1.146c2.537,0,4.604-2.067,4.604-4.61
					c0-1.959-1.261-3.704-3.138-4.339c-0.423-0.144-0.755-0.475-0.9-0.896c-0.64-1.869-2.382-3.125-4.336-3.125
					c-1.913,0-3.646,1.219-4.31,3.034c-0.162,0.44-0.528,0.775-0.983,0.896c-2.021,0.535-3.431,2.356-3.431,4.43
					c0,2.543,2.066,4.61,4.607,4.61c1.389,0,2.396-0.624,2.998-1.146C27.066,90.697,27.402,90.579,27.738,90.579z"/>
			</g>
		</g>
	</g>
	<path fill="#87C840" d="M72.262,90.579c0.337,0,0.672,0.118,0.943,0.353c0.602,0.522,1.609,1.146,3,1.146
		c2.539,0,4.605-2.067,4.605-4.61c0-1.959-1.262-3.704-3.139-4.339c-0.424-0.144-0.756-0.475-0.9-0.897
		c-0.637-1.868-2.379-3.124-4.336-3.124c-1.913,0-3.645,1.219-4.31,3.034c-0.161,0.44-0.528,0.775-0.981,0.896
		c-2.021,0.535-3.432,2.356-3.432,4.43c0,2.543,2.066,4.61,4.607,4.61c1.389,0,2.396-0.622,2.997-1.146
		C71.588,90.697,71.924,90.579,72.262,90.579z"/>
	<g>
		<path fill="#2D6868" d="M37.968,41.129c-0.36,0-0.721-0.135-1.001-0.404c-3.792-3.669-5.881-8.58-5.881-13.829
			c0-10.628,8.646-19.275,19.273-19.275c10.628,0,19.275,8.647,19.275,19.275c0,5.251-2.089,10.161-5.881,13.829
			c-0.572,0.554-1.482,0.538-2.035-0.034c-0.551-0.571-0.536-1.481,0.034-2.033c3.228-3.122,5.005-7.298,5.005-11.762
			c0-9.042-7.356-16.398-16.398-16.398c-9.041,0-16.396,7.356-16.396,16.398c0,4.463,1.777,8.64,5.005,11.762
			c0.569,0.552,0.586,1.462,0.034,2.033C38.719,40.983,38.344,41.129,37.968,41.129z"/>
	</g>
	<path fill="#87C840" d="M27.738,90.579c0.338,0,0.674,0.118,0.944,0.353c0.601,0.524,1.608,1.146,3.001,1.146
		c2.537,0,4.604-2.067,4.604-4.61c0-1.959-1.261-3.704-3.138-4.339c-0.423-0.144-0.755-0.475-0.9-0.896
		c-0.64-1.869-2.382-3.125-4.336-3.125c-1.913,0-3.646,1.219-4.31,3.034c-0.162,0.44-0.528,0.775-0.983,0.896
		c-2.021,0.535-3.431,2.356-3.431,4.43c0,2.543,2.066,4.61,4.607,4.61c1.389,0,2.396-0.624,2.998-1.146
		C27.066,90.697,27.402,90.579,27.738,90.579z"/>
</g>
</svg>
