<?xml version="1.0" encoding="utf-8"?>
<!-- Generator: Adobe Illustrator 16.0.0, SVG Export Plug-In . SVG Version: 6.00 Build 0)  -->
<!DOCTYPE svg PUBLIC "-//W3C//DTD SVG 1.1//EN" "http://www.w3.org/Graphics/SVG/1.1/DTD/svg11.dtd">
<svg version="1.1" id="Layer_1" xmlns="http://www.w3.org/2000/svg" xmlns:xlink="http://www.w3.org/1999/xlink" x="0px" y="0px"
	 width="100px" height="100px" viewBox="0 0 100 100" enable-background="new 0 0 100 100" xml:space="preserve">
<g>
	<g>
		<g>
			<path fill="#2D6868" d="M65.347,49.823c-7.101,0-12.878-5.775-12.878-12.872c0-4.894,4.48-30.068,12.878-30.068
				c8.396,0,12.877,25.175,12.877,30.068C78.224,44.048,72.447,49.823,65.347,49.823z M65.347,10.168
				c-4.153,0-9.592,19.612-9.592,26.783c0,5.285,4.302,9.586,9.592,9.586c5.288,0,9.591-4.301,9.591-9.586
				C74.938,29.78,69.5,10.168,65.347,10.168z"/>
		</g>
		<g>
			<path fill="#2D6868" d="M65.347,64.448c-0.907,0-1.643-0.734-1.643-1.643V48.072c0-0.908,0.735-1.644,1.643-1.644
				c0.908,0,1.644,0.735,1.644,1.644v14.733C66.99,63.714,66.255,64.448,65.347,64.448z"/>
		</g>
	</g>
	<g>
		<path fill="#2D6868" d="M88.975,83.513c-0.008,0.003-0.02,0.003-0.033,0H10.996c-0.557,0-1.076-0.282-1.379-0.75
			c-0.302-0.467-0.346-1.056-0.119-1.564l12.885-28.707c0.266-0.59,0.852-0.971,1.499-0.971H76.06c0.647,0,1.233,0.381,1.499,0.971
			l12.761,28.433c0.188,0.269,0.298,0.594,0.298,0.947C90.617,82.779,89.883,83.513,88.975,83.513z M13.533,80.229h72.871
			L74.996,54.807H24.945L13.533,80.229z"/>
	</g>
	<g>
		<path fill="#2D6868" d="M88.941,92.693H10.996c-0.908,0-1.643-0.735-1.643-1.643v-9.18c0-0.908,0.734-1.643,1.643-1.643h77.945
			c0.91,0,1.645,0.734,1.645,1.643v9.18C90.586,91.958,89.852,92.693,88.941,92.693z M12.639,89.407h74.662v-5.895H12.639V89.407z"
			/>
	</g>
	<g>
		<g>
			<path fill="#2D6868" d="M31.885,74.851c-0.908,0-1.644-0.735-1.644-1.644v-6.933c0-0.908,0.735-1.643,1.644-1.643
				c0.907,0,1.643,0.734,1.643,1.643v6.933C33.527,74.115,32.792,74.851,31.885,74.851z"/>
		</g>
		<g>
			<path fill="#2D6868" d="M31.885,74.851c-0.422,0-0.842-0.161-1.162-0.481l-4.9-4.902c-0.643-0.642-0.643-1.683,0-2.323
				c0.641-0.642,1.68-0.642,2.322,0l4.9,4.902c0.643,0.642,0.643,1.681,0,2.323C32.725,74.689,32.305,74.851,31.885,74.851z"/>
		</g>
		<g>
			<path fill="#2D6868" d="M31.885,74.851c-0.422,0-0.842-0.161-1.162-0.481c-0.642-0.643-0.642-1.682,0-2.323l4.904-4.902
				c0.641-0.642,1.68-0.642,2.321,0c0.643,0.641,0.643,1.682,0,2.323l-4.903,4.902C32.725,74.689,32.305,74.851,31.885,74.851z"/>
		</g>
	</g>
	<g>
		<g>
			<path fill="#2D6868" d="M45.578,67.054c-0.908,0-1.643-0.734-1.643-1.643v-6.935c0-0.907,0.734-1.643,1.643-1.643
				s1.643,0.735,1.643,1.643v6.935C47.221,66.319,46.486,67.054,45.578,67.054z"/>
		</g>
		<g>
			<path fill="#2D6868" d="M45.578,67.054c-0.42,0-0.84-0.16-1.16-0.481l-4.9-4.903c-0.644-0.642-0.644-1.681,0-2.322
				c0.639-0.643,1.68-0.643,2.321,0l4.901,4.902c0.642,0.643,0.642,1.682,0,2.323C46.42,66.894,45.998,67.054,45.578,67.054z"/>
		</g>
		<g>
			<path fill="#2D6868" d="M45.578,67.054c-0.42,0-0.84-0.16-1.16-0.481c-0.643-0.642-0.643-1.681,0-2.323l4.902-4.902
				c0.641-0.643,1.682-0.643,2.322,0c0.643,0.642,0.643,1.681,0,2.322l-4.902,4.903C46.42,66.894,45.998,67.054,45.578,67.054z"/>
		</g>
	</g>
	<g>
		<g>
			<path fill="#2D6868" d="M57.309,76.583c-0.908,0-1.643-0.734-1.643-1.643v-6.934c0-0.908,0.734-1.644,1.643-1.644
				s1.645,0.735,1.645,1.644v6.934C58.953,75.849,58.217,76.583,57.309,76.583z"/>
		</g>
		<g>
			<path fill="#2D6868" d="M57.309,76.583c-0.42,0-0.84-0.16-1.161-0.481l-4.901-4.902c-0.641-0.642-0.641-1.682,0-2.323
				c0.643-0.642,1.682-0.642,2.324,0l4.9,4.902c0.643,0.643,0.643,1.682,0,2.323C58.148,76.423,57.73,76.583,57.309,76.583z"/>
		</g>
		<g>
			<path fill="#2D6868" d="M57.309,76.583c-0.42,0-0.84-0.16-1.161-0.481c-0.642-0.642-0.642-1.681,0-2.323l4.903-4.902
				c0.641-0.642,1.681-0.642,2.322,0c0.643,0.642,0.643,1.682,0,2.323l-4.902,4.902C58.148,76.423,57.73,76.583,57.309,76.583z"/>
		</g>
	</g>
	<path fill="#87C840" d="M65.347,10.168c-4.153,0-9.592,19.612-9.592,26.783c0,5.285,4.302,9.586,9.592,9.586
		c5.288,0,9.591-4.301,9.591-9.586C74.938,29.78,69.5,10.168,65.347,10.168z"/>
</g>
</svg>
