<?xml version="1.0" encoding="utf-8"?>
<!-- Generator: Adobe Illustrator 16.0.0, SVG Export Plug-In . SVG Version: 6.00 Build 0)  -->
<!DOCTYPE svg PUBLIC "-//W3C//DTD SVG 1.1//EN" "http://www.w3.org/Graphics/SVG/1.1/DTD/svg11.dtd">
<svg version="1.1" id="Layer_1" xmlns="http://www.w3.org/2000/svg" xmlns:xlink="http://www.w3.org/1999/xlink" x="0px" y="0px"
	 width="100px" height="100px" viewBox="0 0 100 100" enable-background="new 0 0 100 100" xml:space="preserve">
<g>
	<g>
		<g>
			<path fill="#2D6868" d="M55.357,90.083c-0.795,0-1.439-0.643-1.439-1.438v-18.15h-7.109v18.15c0,0.795-0.645,1.438-1.439,1.438
				s-1.438-0.643-1.438-1.438V69.057c0-0.795,0.643-1.438,1.438-1.438h9.988c0.795,0,1.438,0.644,1.438,1.438v19.589
				C56.795,89.44,56.152,90.083,55.357,90.083z"/>
		</g>
		<g>
			<path fill="#2D6868" d="M58.969,96.306H41.76c-0.795,0-1.438-0.643-1.438-1.438V88.91c0-0.795,0.644-1.438,1.438-1.438
				s1.438,0.644,1.438,1.438v4.52h14.332v-4.52c0-0.795,0.645-1.438,1.439-1.438s1.438,0.644,1.438,1.438v5.958
				C60.406,95.663,59.764,96.306,58.969,96.306z"/>
		</g>
		<g>
			<path fill="#2D6868" d="M62.598,90.349c-0.007,0.002-0.017,0.002-0.027,0H37.428c-0.443,0-0.861-0.203-1.134-0.553
				c-0.272-0.349-0.37-0.804-0.261-1.233c0.109-0.442,0.161-0.808,0.161-1.15c0-1.979-1.272-3.739-3.167-4.382
				c-0.424-0.143-0.755-0.475-0.899-0.896c-0.646-1.889-2.407-3.157-4.383-3.157c-0.026,0.003-0.249,0.021-0.275,0.021
				c-0.391,0.029-0.771-0.129-1.052-0.4c-0.283-0.271-0.441-0.646-0.441-1.036V63.708h-5.102c-0.588,0-1.115-0.357-1.334-0.902
				c-0.22-0.545-0.086-1.167,0.338-1.574l29.488-28.309c0.558-0.535,1.438-0.532,1.992,0l29.328,28.158
				c0.379,0.259,0.628,0.694,0.628,1.188c0,0.795-0.644,1.438-1.438,1.438c-0.006,0.001-0.018,0-0.028,0h-5.101v13.887
				c0,0.408-0.174,0.798-0.477,1.07c-0.306,0.273-0.73,0.4-1.115,0.359c-0.245-0.026-0.396-0.047-0.553-0.047
				c-1.933,0-3.682,1.23-4.35,3.064c-0.16,0.44-0.527,0.776-0.982,0.897c-2.041,0.539-3.467,2.379-3.467,4.473
				c0,0.279,0.033,0.57,0.104,0.903c0.083,0.181,0.128,0.383,0.128,0.595C64.036,89.706,63.393,90.349,62.598,90.349z M39.07,87.472
				h21.857c0-0.02,0-0.04,0-0.06c0-3.152,1.984-5.948,4.91-7.032c1.133-2.367,3.436-3.983,6.033-4.242V62.27
				c0-0.795,0.645-1.438,1.439-1.438h2.963l-25.91-24.875L24.449,60.831h2.966c0.795,0,1.438,0.644,1.438,1.438v13.915
				c2.516,0.376,4.689,2.021,5.742,4.374c2.703,1.199,4.475,3.872,4.475,6.854C39.07,87.432,39.07,87.452,39.07,87.472z"/>
		</g>
		<path fill="#2D6868" d="M76.402,94.943c-1.402,0-2.777-0.405-3.973-1.158c-1.195,0.753-2.572,1.158-3.976,1.158
			c-4.149,0-7.526-3.378-7.526-7.531c0-3.152,1.984-5.948,4.91-7.032c1.238-2.586,3.873-4.278,6.766-4.278
			c2.974,0,5.645,1.764,6.846,4.455c2.706,1.2,4.481,3.873,4.481,6.855C83.931,91.565,80.555,94.943,76.402,94.943z M72.43,90.56
			c0.336,0,0.671,0.116,0.942,0.352c0.608,0.527,1.626,1.155,3.03,1.155c2.564,0,4.652-2.089,4.652-4.654
			c0-1.979-1.275-3.739-3.174-4.382c-0.423-0.143-0.756-0.475-0.9-0.897c-0.644-1.888-2.403-3.155-4.377-3.155
			c-1.933,0-3.682,1.23-4.35,3.064c-0.16,0.44-0.527,0.776-0.982,0.897c-2.041,0.539-3.467,2.379-3.467,4.473
			c0,2.565,2.086,4.654,4.649,4.654c1.406,0,2.425-0.628,3.032-1.155C71.758,90.676,72.094,90.56,72.43,90.56z"/>
		<path fill="#87C840" d="M72.43,90.56c0.336,0,0.671,0.116,0.942,0.352c0.608,0.527,1.626,1.155,3.03,1.155
			c2.564,0,4.652-2.089,4.652-4.654c0-1.979-1.275-3.739-3.174-4.382c-0.423-0.143-0.756-0.475-0.9-0.897
			c-0.644-1.888-2.403-3.155-4.377-3.155c-1.933,0-3.682,1.23-4.35,3.064c-0.16,0.44-0.527,0.776-0.982,0.897
			c-2.041,0.539-3.467,2.379-3.467,4.473c0,2.565,2.086,4.654,4.649,4.654c1.406,0,2.425-0.628,3.032-1.155
			C71.758,90.676,72.094,90.56,72.43,90.56z"/>
		<path fill="#2D6868" d="M31.545,94.943c-1.424,0-2.779-0.397-3.976-1.157c-1.195,0.752-2.569,1.157-3.968,1.157
			c-4.154,0-7.533-3.378-7.533-7.531c0-3.152,1.986-5.949,4.91-7.033c1.243-2.585,3.877-4.277,6.767-4.277
			c2.974,0,5.647,1.764,6.851,4.457c2.703,1.199,4.475,3.872,4.475,6.854C39.07,91.565,35.694,94.943,31.545,94.943z M27.57,90.56
			c0.336,0,0.672,0.116,0.941,0.352c0.609,0.526,1.631,1.155,3.033,1.155c2.563,0,4.649-2.089,4.649-4.654
			c0-1.979-1.272-3.739-3.167-4.382c-0.424-0.143-0.755-0.475-0.899-0.896c-0.646-1.889-2.407-3.157-4.383-3.157
			c-1.932,0-3.679,1.232-4.349,3.065c-0.162,0.441-0.529,0.775-0.983,0.896c-2.042,0.539-3.468,2.379-3.468,4.473
			c0,2.565,2.088,4.654,4.656,4.654c1.4,0,2.418-0.628,3.027-1.155C26.899,90.676,27.235,90.56,27.57,90.56z"/>
		<path fill="#87C840" d="M27.57,90.56c0.336,0,0.672,0.116,0.941,0.352c0.609,0.526,1.631,1.155,3.033,1.155
			c2.563,0,4.649-2.089,4.649-4.654c0-1.979-1.272-3.739-3.167-4.382c-0.424-0.143-0.755-0.475-0.899-0.896
			c-0.646-1.889-2.407-3.157-4.383-3.157c-1.932,0-3.679,1.232-4.349,3.065c-0.162,0.441-0.529,0.775-0.983,0.896
			c-2.042,0.539-3.468,2.379-3.468,4.473c0,2.565,2.088,4.654,4.656,4.654c1.4,0,2.418-0.628,3.027-1.155
			C26.899,90.676,27.235,90.56,27.57,90.56z"/>
	</g>
	<g>
		<g>
			<path fill="#2D6868" d="M50.36,27.06c-2.358,0-4.277-1.92-4.277-4.28c0-0.595,0.483-1.078,1.079-1.078s1.078,0.483,1.078,1.078
				c0,1.171,0.951,2.123,2.12,2.123s2.12-0.952,2.12-2.123c0-0.808-0.586-1.189-2.025-1.931l-1.193-0.625
				c-1.416-0.735-3.179-1.648-3.179-3.844c0-2.358,1.919-4.277,4.277-4.277s4.277,1.919,4.277,4.277
				c0,0.596-0.483,1.079-1.079,1.079s-1.078-0.483-1.078-1.079c0-1.169-0.951-2.119-2.12-2.119s-2.12,0.95-2.12,2.119
				c0,0.804,0.584,1.186,2.015,1.928l1.188,0.623c1.423,0.733,3.194,1.646,3.194,3.849C54.638,25.14,52.719,27.06,50.36,27.06z"/>
		</g>
		<g>
			<path fill="#2D6868" d="M50.36,29.424c-0.596,0-1.079-0.483-1.079-1.079V10.813c0-0.596,0.483-1.079,1.079-1.079
				s1.079,0.483,1.079,1.079v17.531C51.439,28.94,50.956,29.424,50.36,29.424z"/>
		</g>
	</g>
	<g>
		<path fill="#2D6868" d="M37.234,41.129c-0.34,0-0.681-0.119-0.955-0.363c-4.547-4.042-7.153-9.813-7.153-15.833
			c0-11.71,9.524-21.238,21.234-21.238c11.712,0,21.241,9.528,21.241,21.238c0,6.02-2.607,11.79-7.156,15.833
			c-0.594,0.527-1.504,0.475-2.029-0.12c-0.529-0.593-0.476-1.503,0.119-2.029c3.934-3.498,6.189-8.486,6.189-13.684
			c0-10.125-8.238-18.361-18.364-18.361c-10.122,0-18.358,8.236-18.358,18.361c0,5.199,2.257,10.188,6.188,13.684
			c0.595,0.526,0.647,1.437,0.119,2.029C38.025,40.966,37.631,41.129,37.234,41.129z"/>
	</g>
</g>
</svg>
